<mxfile host="Electron" modified="2023-11-10T02:33:19.446Z" agent="Mozilla/5.0 (Windows NT 10.0; Win64; x64) AppleWebKit/537.36 (KHTML, like Gecko) draw.io/22.0.3 Chrome/114.0.5735.289 Electron/25.8.4 Safari/537.36" etag="EhZcEMNaB1reAjjeDksB" version="22.0.3" type="device">
  <diagram name="Trang-1" id="b1bqtQYbuvhys-BU4NPX">
    <mxGraphModel dx="898" dy="539" grid="1" gridSize="10" guides="1" tooltips="1" connect="1" arrows="1" fold="1" page="1" pageScale="1" pageWidth="1169" pageHeight="1654" math="0" shadow="0">
      <root>
        <mxCell id="0" />
        <mxCell id="1" parent="0" />
        <mxCell id="pyOXxYPBLgOSDxBL3bJs-3" value="" style="edgeStyle=orthogonalEdgeStyle;rounded=0;orthogonalLoop=1;jettySize=auto;html=1;" edge="1" parent="1" source="pyOXxYPBLgOSDxBL3bJs-1" target="pyOXxYPBLgOSDxBL3bJs-2">
          <mxGeometry relative="1" as="geometry" />
        </mxCell>
        <mxCell id="pyOXxYPBLgOSDxBL3bJs-1" value="start" style="ellipse;whiteSpace=wrap;html=1;" vertex="1" parent="1">
          <mxGeometry x="340" y="90" width="120" height="80" as="geometry" />
        </mxCell>
        <mxCell id="pyOXxYPBLgOSDxBL3bJs-5" value="" style="edgeStyle=orthogonalEdgeStyle;rounded=0;orthogonalLoop=1;jettySize=auto;html=1;" edge="1" parent="1" source="pyOXxYPBLgOSDxBL3bJs-2" target="pyOXxYPBLgOSDxBL3bJs-4">
          <mxGeometry relative="1" as="geometry" />
        </mxCell>
        <mxCell id="pyOXxYPBLgOSDxBL3bJs-2" value="nhập a b c" style="shape=parallelogram;perimeter=parallelogramPerimeter;whiteSpace=wrap;html=1;fixedSize=1;" vertex="1" parent="1">
          <mxGeometry x="340" y="220" width="120" height="60" as="geometry" />
        </mxCell>
        <mxCell id="pyOXxYPBLgOSDxBL3bJs-7" value="" style="edgeStyle=orthogonalEdgeStyle;rounded=0;orthogonalLoop=1;jettySize=auto;html=1;" edge="1" parent="1" source="pyOXxYPBLgOSDxBL3bJs-4" target="pyOXxYPBLgOSDxBL3bJs-6">
          <mxGeometry relative="1" as="geometry" />
        </mxCell>
        <mxCell id="pyOXxYPBLgOSDxBL3bJs-4" value="a=b=c=0" style="rhombus;whiteSpace=wrap;html=1;" vertex="1" parent="1">
          <mxGeometry x="360" y="320" width="80" height="80" as="geometry" />
        </mxCell>
        <mxCell id="pyOXxYPBLgOSDxBL3bJs-9" value="" style="edgeStyle=orthogonalEdgeStyle;rounded=0;orthogonalLoop=1;jettySize=auto;html=1;" edge="1" parent="1" source="pyOXxYPBLgOSDxBL3bJs-6" target="pyOXxYPBLgOSDxBL3bJs-8">
          <mxGeometry relative="1" as="geometry" />
        </mxCell>
        <mxCell id="pyOXxYPBLgOSDxBL3bJs-14" value="" style="edgeStyle=orthogonalEdgeStyle;rounded=0;orthogonalLoop=1;jettySize=auto;html=1;" edge="1" parent="1" source="pyOXxYPBLgOSDxBL3bJs-6" target="pyOXxYPBLgOSDxBL3bJs-13">
          <mxGeometry relative="1" as="geometry" />
        </mxCell>
        <mxCell id="pyOXxYPBLgOSDxBL3bJs-6" value="a=0" style="rhombus;whiteSpace=wrap;html=1;" vertex="1" parent="1">
          <mxGeometry x="360" y="480" width="80" height="80" as="geometry" />
        </mxCell>
        <mxCell id="pyOXxYPBLgOSDxBL3bJs-11" value="" style="edgeStyle=orthogonalEdgeStyle;rounded=0;orthogonalLoop=1;jettySize=auto;html=1;" edge="1" parent="1" source="pyOXxYPBLgOSDxBL3bJs-8" target="pyOXxYPBLgOSDxBL3bJs-10">
          <mxGeometry relative="1" as="geometry" />
        </mxCell>
        <mxCell id="pyOXxYPBLgOSDxBL3bJs-8" value="x=c/b" style="whiteSpace=wrap;html=1;" vertex="1" parent="1">
          <mxGeometry x="500" y="490" width="120" height="60" as="geometry" />
        </mxCell>
        <mxCell id="pyOXxYPBLgOSDxBL3bJs-25" style="edgeStyle=orthogonalEdgeStyle;rounded=0;orthogonalLoop=1;jettySize=auto;html=1;exitX=1;exitY=0.5;exitDx=0;exitDy=0;entryX=1;entryY=0.5;entryDx=0;entryDy=0;" edge="1" parent="1" source="pyOXxYPBLgOSDxBL3bJs-10" target="pyOXxYPBLgOSDxBL3bJs-12">
          <mxGeometry relative="1" as="geometry">
            <Array as="points">
              <mxPoint x="880" y="520" />
              <mxPoint x="880" y="1080" />
            </Array>
          </mxGeometry>
        </mxCell>
        <mxCell id="pyOXxYPBLgOSDxBL3bJs-10" value="prin x&amp;nbsp;" style="shape=parallelogram;perimeter=parallelogramPerimeter;whiteSpace=wrap;html=1;fixedSize=1;" vertex="1" parent="1">
          <mxGeometry x="700" y="490" width="120" height="60" as="geometry" />
        </mxCell>
        <mxCell id="pyOXxYPBLgOSDxBL3bJs-12" value="end" style="ellipse;whiteSpace=wrap;html=1;" vertex="1" parent="1">
          <mxGeometry x="340" y="1040" width="120" height="80" as="geometry" />
        </mxCell>
        <mxCell id="pyOXxYPBLgOSDxBL3bJs-17" value="" style="edgeStyle=orthogonalEdgeStyle;rounded=0;orthogonalLoop=1;jettySize=auto;html=1;" edge="1" parent="1" source="pyOXxYPBLgOSDxBL3bJs-13" target="pyOXxYPBLgOSDxBL3bJs-15">
          <mxGeometry relative="1" as="geometry" />
        </mxCell>
        <mxCell id="pyOXxYPBLgOSDxBL3bJs-13" value="denta=b*b-4ac" style="whiteSpace=wrap;html=1;" vertex="1" parent="1">
          <mxGeometry x="340" y="640" width="120" height="60" as="geometry" />
        </mxCell>
        <mxCell id="pyOXxYPBLgOSDxBL3bJs-19" value="" style="edgeStyle=orthogonalEdgeStyle;rounded=0;orthogonalLoop=1;jettySize=auto;html=1;" edge="1" parent="1" source="pyOXxYPBLgOSDxBL3bJs-15" target="pyOXxYPBLgOSDxBL3bJs-18">
          <mxGeometry relative="1" as="geometry" />
        </mxCell>
        <mxCell id="pyOXxYPBLgOSDxBL3bJs-23" value="" style="edgeStyle=orthogonalEdgeStyle;rounded=0;orthogonalLoop=1;jettySize=auto;html=1;" edge="1" parent="1" source="pyOXxYPBLgOSDxBL3bJs-15" target="pyOXxYPBLgOSDxBL3bJs-22">
          <mxGeometry relative="1" as="geometry" />
        </mxCell>
        <mxCell id="pyOXxYPBLgOSDxBL3bJs-15" value="denta&amp;gt;=0" style="rhombus;whiteSpace=wrap;html=1;" vertex="1" parent="1">
          <mxGeometry x="360" y="747" width="80" height="80" as="geometry" />
        </mxCell>
        <mxCell id="pyOXxYPBLgOSDxBL3bJs-21" value="" style="edgeStyle=orthogonalEdgeStyle;rounded=0;orthogonalLoop=1;jettySize=auto;html=1;" edge="1" parent="1" source="pyOXxYPBLgOSDxBL3bJs-18" target="pyOXxYPBLgOSDxBL3bJs-20">
          <mxGeometry relative="1" as="geometry" />
        </mxCell>
        <mxCell id="pyOXxYPBLgOSDxBL3bJs-18" value="x1=(-b-sqrt denta)/2a&lt;br&gt;x2=(-b+sqrt denta)/2a" style="whiteSpace=wrap;html=1;" vertex="1" parent="1">
          <mxGeometry x="500" y="757" width="120" height="60" as="geometry" />
        </mxCell>
        <mxCell id="pyOXxYPBLgOSDxBL3bJs-26" style="edgeStyle=orthogonalEdgeStyle;rounded=0;orthogonalLoop=1;jettySize=auto;html=1;exitX=1;exitY=0.5;exitDx=0;exitDy=0;" edge="1" parent="1" source="pyOXxYPBLgOSDxBL3bJs-20">
          <mxGeometry relative="1" as="geometry">
            <mxPoint x="460" y="1080" as="targetPoint" />
            <Array as="points">
              <mxPoint x="810" y="960" />
              <mxPoint x="461" y="960" />
            </Array>
          </mxGeometry>
        </mxCell>
        <mxCell id="pyOXxYPBLgOSDxBL3bJs-20" value="prin x1 x2" style="shape=parallelogram;perimeter=parallelogramPerimeter;whiteSpace=wrap;html=1;fixedSize=1;" vertex="1" parent="1">
          <mxGeometry x="700" y="757" width="120" height="60" as="geometry" />
        </mxCell>
        <mxCell id="pyOXxYPBLgOSDxBL3bJs-24" value="" style="edgeStyle=orthogonalEdgeStyle;rounded=0;orthogonalLoop=1;jettySize=auto;html=1;" edge="1" parent="1" source="pyOXxYPBLgOSDxBL3bJs-22" target="pyOXxYPBLgOSDxBL3bJs-12">
          <mxGeometry relative="1" as="geometry" />
        </mxCell>
        <mxCell id="pyOXxYPBLgOSDxBL3bJs-22" value="phương trình vô nghiệm" style="shape=parallelogram;perimeter=parallelogramPerimeter;whiteSpace=wrap;html=1;fixedSize=1;" vertex="1" parent="1">
          <mxGeometry x="340" y="917" width="120" height="60" as="geometry" />
        </mxCell>
      </root>
    </mxGraphModel>
  </diagram>
</mxfile>
